<?xml version="1.0" encoding="UTF-8" ?>
<!DOCTYPE svg PUBLIC "-//W3C//DTD SVG 1.1//EN" "http://www.w3.org/Graphics/SVG/1.1/DTD/svg11.dtd">
<svg width="200px" height="210px" viewBox="0 0 1000 1050" version="1.1" xmlns="http://www.w3.org/2000/svg">
<g id="#ffffffff">
<path fill="#ffffff" stroke="#ffffff" stroke-width="0.09375" opacity="1.00" d=" M 273.90 16.70 C 309.94 4.10 349.26 -0.90 386.95 6.56 C 402.34 9.37 417.68 14.97 429.47 25.55 C 441.93 36.57 448.80 52.74 450.90 69.01 C 453.18 85.30 451.14 101.84 447.79 117.83 C 443.76 135.57 438.09 153.14 428.95 168.96 C 424.76 175.96 420.04 182.83 413.74 188.10 C 425.74 161.55 438.60 134.45 441.03 105.00 C 441.94 90.24 441.24 74.48 433.53 61.42 C 425.15 46.64 409.40 35.17 391.97 35.22 C 374.32 36.14 356.83 40.33 340.73 47.63 C 315.68 58.88 294.12 76.55 275.08 96.09 C 261.56 109.97 249.20 124.91 237.25 140.14 C 234.93 143.14 232.41 146.02 230.51 149.32 C 243.36 137.18 255.97 124.71 270.03 113.93 C 286.26 101.29 304.21 90.47 323.95 84.36 C 334.92 80.92 346.54 78.53 358.04 80.43 C 370.59 82.20 382.77 88.30 390.73 98.31 C 399.54 109.45 404.82 123.01 407.58 136.85 C 410.99 153.64 410.89 170.87 410.63 187.91 C 408.57 170.85 405.14 153.89 399.83 137.51 C 395.90 125.61 390.99 113.77 383.06 103.94 C 378.03 97.77 371.46 92.37 363.49 90.73 C 352.75 88.57 341.62 90.22 331.19 93.18 C 317.58 97.19 304.70 103.37 292.54 110.61 C 265.64 126.71 241.97 147.89 221.82 171.84 C 208.89 187.45 197.53 204.41 188.53 222.59 C 180.40 238.79 174.56 256.02 169.74 273.45 C 158.23 315.77 153.73 359.82 154.51 403.61 C 155.04 431.24 157.74 458.85 162.92 486.00 C 167.64 507.08 173.12 528.00 179.67 548.59 C 190.72 584.18 207.62 617.82 228.22 648.82 C 238.49 663.89 249.23 678.82 262.31 691.61 C 288.18 717.61 320.42 736.96 355.09 748.72 C 377.28 756.35 400.72 760.33 424.17 760.56 C 425.35 758.80 423.62 757.53 422.47 756.56 C 393.27 731.74 361.75 709.53 334.93 682.01 C 321.53 668.47 309.97 653.21 299.83 637.11 C 278.30 603.27 263.40 565.34 255.45 526.05 C 249.93 499.42 247.61 472.07 249.36 444.91 C 251.70 413.05 256.27 381.07 266.89 350.82 C 275.44 326.00 288.60 302.68 306.03 283.01 C 324.28 263.46 350.80 253.55 377.06 251.50 C 398.89 251.62 417.77 269.30 422.46 290.08 C 428.87 314.93 423.81 340.59 420.78 365.53 C 419.72 371.03 420.49 376.94 418.25 382.15 C 415.19 387.93 405.90 387.62 403.23 381.65 C 398.56 365.48 398.98 348.32 394.54 332.09 C 392.85 326.48 390.54 320.99 387.11 316.22 C 384.53 316.33 381.84 317.04 380.08 319.05 C 366.10 333.83 355.09 351.29 347.23 370.04 C 337.33 393.40 329.36 418.34 329.82 443.98 C 329.86 457.77 334.91 470.91 341.01 483.07 C 346.58 494.05 353.30 504.41 360.75 514.20 C 362.13 516.13 364.23 517.34 365.75 519.14 C 376.93 533.21 389.80 546.08 404.57 556.36 C 419.01 565.91 435.36 573.86 452.95 574.55 C 462.13 574.94 471.56 574.44 480.23 571.14 C 473.31 503.67 450.25 438.83 445.47 371.04 C 443.52 345.98 444.76 320.65 449.41 295.95 C 456.68 258.40 480.02 224.98 510.79 202.73 C 526.27 191.28 543.65 182.36 562.09 176.78 C 581.74 170.90 602.47 167.61 622.99 169.86 C 641.02 171.85 658.98 175.94 675.54 183.50 C 722.39 204.88 758.48 249.15 768.31 299.90 C 770.80 299.93 773.06 298.73 775.30 297.78 C 776.73 295.93 774.28 294.84 773.19 293.79 C 768.51 290.12 769.77 281.56 775.40 279.52 C 794.18 274.56 814.13 274.63 833.01 279.04 C 865.33 285.79 894.72 303.84 917.10 327.87 C 930.62 342.47 941.02 359.67 949.47 377.61 C 969.51 418.05 983.69 461.86 987.48 506.99 C 989.14 524.71 987.58 542.50 984.92 560.04 C 982.75 580.35 977.75 600.26 972.36 619.93 C 955.31 679.58 925.15 735.14 886.23 783.31 C 884.54 785.51 884.03 788.34 882.79 790.78 C 878.14 800.42 871.33 809.27 862.21 815.05 C 854.55 820.62 845.30 823.28 836.09 824.91 C 828.63 834.98 818.19 842.79 806.57 847.40 C 794.05 851.97 780.23 854.20 767.13 850.82 C 759.36 849.48 752.16 846.16 745.10 842.89 C 732.89 845.51 720.30 847.26 707.84 845.52 C 696.53 843.97 685.19 841.19 675.16 835.59 C 670.12 832.90 665.69 829.25 661.15 825.84 L 659.81 825.87 C 656.86 829.83 654.20 834.10 650.45 837.41 C 643.30 843.70 635.02 848.76 626.02 851.89 C 624.70 852.19 623.42 852.90 623.40 854.42 C 616.86 883.17 594.07 907.57 565.76 915.89 C 560.72 926.68 553.60 936.83 543.68 943.70 C 532.23 952.32 518.14 956.58 504.09 958.42 C 497.16 959.18 490.01 959.55 483.20 957.84 C 480.11 957.29 478.52 954.32 476.18 952.58 C 474.30 952.91 473.11 954.54 471.63 955.59 C 461.02 964.34 448.35 970.54 434.87 973.33 C 420.81 977.02 405.92 976.87 391.87 973.22 C 375.15 969.71 359.72 961.08 347.53 949.18 C 310.82 951.77 273.02 937.11 248.33 909.68 C 243.08 903.90 238.90 897.26 234.59 890.82 C 221.19 884.66 207.42 879.05 194.96 871.03 C 184.61 864.43 174.84 856.55 167.65 846.50 C 145.70 815.11 119.48 787.03 96.80 756.19 C 84.79 740.00 73.78 722.99 64.97 704.83 C 44.02 665.44 29.62 622.72 21.14 578.96 C 9.69 521.13 9.27 461.39 17.71 403.13 C 28.78 327.00 53.51 252.91 90.19 185.30 C 97.93 169.81 107.04 155.03 117.14 140.97 C 127.49 126.86 138.18 112.97 150.10 100.14 C 184.06 63.20 226.35 33.30 273.90 16.70 M 311.14 15.04 C 277.21 24.94 244.79 39.93 215.22 59.29 C 165.93 91.52 124.44 136.19 97.95 188.95 C 81.58 219.17 67.53 250.65 56.08 283.06 C 31.34 353.10 18.30 427.64 20.98 502.01 C 22.60 546.03 29.84 589.93 43.44 631.87 C 52.88 661.49 66.03 689.80 81.07 716.96 C 106.64 761.58 143.84 797.80 173.24 839.70 C 179.37 848.47 187.43 855.75 196.28 861.72 C 209.50 870.61 224.25 876.84 238.80 883.19 C 239.90 883.67 241.11 884.18 241.62 885.38 C 262.39 923.53 308.02 945.25 350.77 940.00 C 370.55 962.36 402.92 971.71 431.85 965.39 C 448.99 961.82 465.03 952.62 476.18 939.03 C 479.32 942.56 482.44 946.11 485.43 949.77 C 502.53 951.62 520.51 948.41 535.18 939.19 C 546.36 932.26 554.90 921.35 558.98 908.85 C 588.65 902.24 612.05 875.92 616.54 846.06 C 623.01 844.13 629.39 841.69 635.17 838.16 C 646.19 831.73 654.83 821.02 657.54 808.43 C 664.94 819.23 675.74 827.57 688.01 832.11 C 706.81 839.22 727.77 838.73 747.00 833.62 C 759.29 841.60 774.40 845.24 788.95 843.21 C 805.13 841.15 820.41 832.26 829.83 818.90 C 830.56 818.06 831.06 816.71 832.38 816.73 C 837.96 816.04 843.54 814.97 848.73 812.72 C 861.82 807.41 872.12 796.12 876.77 782.85 C 877.73 779.50 880.34 777.11 882.40 774.44 C 930.11 714.55 963.38 642.74 975.59 567.00 C 962.72 597.74 946.83 627.29 927.46 654.44 C 899.03 694.36 862.29 729.23 818.07 751.02 C 801.37 759.60 782.69 764.17 763.93 764.46 C 731.76 765.10 699.95 754.13 673.72 735.76 C 625.61 770.94 572.72 801.00 514.85 816.56 C 476.28 827.01 435.60 829.98 396.01 824.22 C 360.54 818.76 326.72 804.71 296.67 785.28 C 268.00 766.72 242.48 743.36 221.20 716.67 C 179.59 664.69 153.02 601.83 139.16 537.01 C 125.50 474.05 123.85 408.55 134.10 344.96 C 146.07 270.34 174.57 198.12 218.68 136.62 C 233.54 114.95 250.36 94.54 269.63 76.63 C 293.14 54.78 320.51 36.45 351.15 26.34 C 369.50 20.13 388.91 17.59 408.25 17.79 C 397.99 15.39 387.55 13.85 377.14 12.30 C 355.26 9.30 332.48 8.47 311.14 15.04 M 507.86 215.79 C 483.02 236.41 464.26 265.00 457.88 296.86 C 452.87 324.25 452.27 352.34 454.93 380.03 C 461.11 446.49 483.40 510.26 489.57 576.72 C 477.19 582.07 463.51 584.42 450.07 583.06 C 432.31 581.35 415.55 573.94 400.86 564.08 C 384.73 553.20 370.73 539.38 358.79 524.08 C 367.07 542.77 380.69 558.56 396.13 571.73 C 421.51 593.60 451.42 609.94 474.75 634.21 C 485.42 645.31 494.20 658.19 501.06 671.95 C 509.17 688.50 513.70 707.76 509.01 725.98 C 505.21 741.30 493.27 753.46 479.41 760.36 C 466.08 767.40 450.80 768.93 435.96 769.34 C 365.82 771.52 295.65 741.23 248.39 689.49 C 237.74 677.41 227.22 665.14 218.26 651.73 C 190.63 610.95 174.00 563.90 161.62 516.54 C 156.00 494.20 150.21 471.79 147.56 448.86 C 142.78 410.76 143.79 372.28 141.41 334.03 C 140.21 338.32 140.27 342.82 139.73 347.22 C 133.28 416.63 134.85 487.75 153.94 555.20 C 171.49 618.42 201.55 679.20 246.94 727.11 C 269.67 750.94 296.10 771.44 325.40 786.55 C 381.56 814.94 448.12 821.22 508.90 805.44 C 541.20 798.44 571.95 785.60 600.94 769.92 C 626.10 756.34 650.06 740.69 673.64 724.57 C 688.19 734.99 704.57 742.88 721.83 747.63 C 750.24 755.52 781.45 754.56 808.67 742.79 C 823.27 736.33 837.14 728.28 850.24 719.16 C 891.29 690.38 924.06 650.90 948.55 607.40 C 956.27 593.10 964.27 578.72 968.60 562.95 C 972.62 549.03 971.89 534.38 972.11 520.05 C 971.71 472.14 962.15 423.94 941.41 380.59 C 935.74 368.93 929.58 357.43 921.83 347.00 C 910.73 332.00 896.98 318.97 881.42 308.67 C 851.67 288.74 814.07 279.38 778.74 287.28 C 798.20 290.68 817.69 295.59 835.19 305.01 C 847.75 311.69 859.00 320.96 867.44 332.47 C 896.27 369.87 916.74 415.21 918.47 462.91 C 919.77 512.20 910.70 562.31 888.56 606.60 C 882.37 618.66 875.68 630.59 866.94 641.00 C 856.17 653.98 843.17 665.17 828.43 673.41 C 812.80 682.15 794.95 687.38 776.95 686.75 C 769.97 686.41 762.65 686.09 756.42 682.54 C 747.48 677.77 739.76 668.53 740.32 657.92 C 740.46 651.20 745.02 645.89 748.80 640.76 C 760.35 625.45 773.98 611.91 787.09 597.97 C 794.30 590.12 801.85 582.46 808.02 573.74 C 796.25 586.59 778.16 592.76 760.96 591.01 C 754.17 590.27 747.38 588.10 741.96 583.86 C 734.53 578.13 730.43 568.37 731.53 559.06 C 734.84 515.74 745.78 473.56 753.98 431.03 C 762.28 388.68 767.46 344.86 760.02 301.98 C 750.43 251.64 713.47 207.88 666.10 188.76 C 651.44 182.73 635.73 179.66 619.98 178.29 C 579.57 175.32 538.80 189.98 507.86 215.79 M 370.59 260.82 C 349.00 263.53 327.64 272.57 312.58 288.62 C 300.24 302.25 290.30 317.97 282.62 334.65 C 269.43 363.30 262.77 394.54 259.84 425.82 C 249.58 508.22 274.42 594.11 325.91 659.09 C 360.03 700.50 406.28 728.98 445.24 765.29 C 460.07 760.92 474.46 753.46 484.71 741.65 C 491.62 733.78 495.95 723.55 496.06 713.02 C 495.90 692.67 488.41 672.81 476.54 656.43 C 457.98 630.78 431.41 612.43 404.44 596.58 C 377.09 581.41 354.10 558.61 338.44 531.56 C 320.38 500.66 312.21 463.40 319.01 427.98 C 323.53 405.70 330.46 383.84 340.28 363.31 C 351.25 340.36 366.07 319.04 385.06 302.00 C 392.16 307.45 397.43 315.03 400.57 323.38 C 407.07 340.72 406.88 359.54 410.65 377.49 C 413.37 350.65 419.80 323.55 415.20 296.54 C 412.94 281.68 403.01 267.65 388.74 262.25 C 382.98 259.98 376.64 259.84 370.59 260.82 M 774.75 307.14 C 777.24 333.03 783.54 358.33 788.79 383.75 C 791.38 370.69 789.34 357.02 793.27 344.19 C 795.27 337.40 800.21 331.27 807.04 328.98 C 811.09 328.92 815.05 330.16 818.93 331.25 C 834.26 336.05 846.85 346.74 857.68 358.26 C 868.64 369.77 878.12 382.62 889.42 393.83 C 877.93 371.51 865.69 349.07 848.15 330.85 C 838.20 320.86 827.19 311.20 813.63 306.54 C 801.17 301.96 787.03 301.94 774.75 307.14 M 800.24 351.84 C 798.52 363.73 799.94 376.04 796.38 387.65 C 793.71 394.16 783.20 393.82 780.88 387.19 C 778.69 377.79 776.98 368.26 774.81 358.84 C 774.15 358.84 772.83 358.83 772.18 358.83 C 771.29 374.60 769.63 390.33 767.09 405.93 C 765.35 418.10 762.50 430.10 760.73 442.26 C 761.34 442.22 762.55 442.16 763.16 442.13 C 766.91 437.57 769.71 432.18 774.15 428.20 C 779.57 424.24 786.43 422.89 792.97 422.17 C 809.96 422.31 824.56 432.04 838.79 440.16 C 842.25 442.16 845.90 443.76 849.56 445.36 C 854.39 447.71 855.32 454.89 851.75 458.72 C 849.65 461.10 846.17 461.84 843.15 461.26 C 831.84 459.60 820.62 455.10 809.06 456.98 C 802.27 459.32 797.76 465.88 795.17 472.29 C 794.08 475.76 793.47 480.67 797.21 482.78 C 814.52 494.73 835.07 501.13 851.97 513.78 C 865.12 522.99 875.58 536.95 878.20 553.03 C 882.00 572.86 878.50 593.22 872.45 612.22 C 871.35 613.98 874.52 615.11 875.23 613.37 C 892.94 582.01 903.69 546.87 907.64 511.11 C 909.71 493.19 910.29 475.10 909.44 457.08 C 908.29 438.39 904.12 419.93 897.32 402.50 C 896.70 400.39 894.55 401.86 893.23 402.20 C 889.76 403.85 885.63 402.49 883.11 399.80 C 874.50 391.09 866.88 381.49 858.81 372.30 C 847.88 360.09 836.33 347.45 820.88 341.04 C 816.74 339.50 812.43 337.52 807.94 337.91 C 803.12 340.83 800.91 346.48 800.24 351.84 M 780.97 433.95 C 779.04 434.94 777.80 436.81 776.45 438.45 C 763.97 454.35 756.95 474.68 757.74 494.95 C 758.38 508.57 762.88 522.57 772.33 532.65 C 792.75 549.17 818.83 555.74 841.26 568.85 C 839.57 577.60 837.96 586.36 836.26 595.11 C 827.21 591.82 818.38 587.97 809.49 584.29 C 790.90 607.31 770.97 629.18 751.17 651.14 C 757.51 660.19 764.79 669.04 774.57 674.52 C 781.97 678.74 791.14 680.03 799.28 677.26 C 811.55 673.00 822.85 666.10 832.50 657.44 C 857.89 634.56 872.36 600.07 870.92 565.93 C 870.47 558.59 869.93 551.01 866.76 544.26 C 861.83 532.70 852.33 523.78 841.89 517.15 C 825.57 506.59 806.80 500.34 791.06 488.85 C 784.46 483.98 784.65 474.47 787.83 467.66 C 791.80 458.85 798.81 450.08 808.84 448.30 C 821.21 446.25 833.09 451.54 845.24 452.88 C 831.23 446.99 819.21 436.99 804.58 432.52 C 796.89 430.11 788.22 430.20 780.97 433.95 M 747.28 506.85 C 744.28 523.43 741.76 540.12 740.44 556.92 C 740.02 561.14 739.54 565.62 741.47 569.57 C 745.02 578.36 755.04 582.59 764.03 582.50 C 777.40 583.33 791.62 578.91 800.68 568.72 C 803.91 564.89 810.40 564.33 813.79 568.23 C 816.29 570.72 816.34 574.46 816.07 577.76 C 820.57 579.26 824.77 582.29 829.56 582.60 C 830.99 579.96 831.02 576.61 831.49 573.65 C 828.51 571.01 824.39 569.92 820.90 568.02 C 803.13 559.92 784.56 552.87 768.94 540.85 C 763.69 537.38 760.58 531.72 757.49 526.43 C 753.66 519.78 751.85 512.28 750.15 504.88 C 748.81 504.92 747.10 505.07 747.28 506.85 Z" />
<path fill="#ffffff" stroke="#ffffff" stroke-width="0.09375" opacity="1.00" d=" M 587.74 204.02 C 610.43 201.61 633.73 201.74 655.92 207.56 C 674.60 212.46 692.40 222.07 705.28 236.65 C 724.87 258.12 736.96 285.59 742.65 313.90 C 748.20 341.23 748.42 369.45 745.20 397.08 C 743.84 410.67 740.11 423.85 737.46 437.21 C 731.14 466.33 724.86 495.48 717.30 524.30 C 724.72 478.57 732.50 432.49 731.10 385.98 C 730.35 358.90 726.36 331.76 717.55 306.09 C 711.88 289.98 705.04 273.98 694.35 260.51 C 677.15 238.47 652.65 223.01 626.53 213.67 C 613.98 209.11 600.91 206.11 587.74 204.02 Z" />
</g>
<g id="#52a57fff">
<path fill="#52a57f" stroke="#52a57f" stroke-width="0.09375" opacity="1.00" d=" M 311.14 15.04 C 332.48 8.47 355.26 9.30 377.14 12.30 C 387.55 13.85 397.99 15.39 408.25 17.79 C 388.91 17.59 369.50 20.13 351.15 26.34 C 320.51 36.45 293.14 54.78 269.63 76.63 C 250.36 94.54 233.54 114.95 218.68 136.62 C 174.57 198.12 146.07 270.34 134.10 344.96 C 123.85 408.55 125.50 474.05 139.16 537.01 C 153.02 601.83 179.59 664.69 221.20 716.67 C 242.48 743.36 268.00 766.72 296.67 785.28 C 326.72 804.71 360.54 818.76 396.01 824.22 C 435.60 829.98 476.28 827.01 514.85 816.56 C 572.72 801.00 625.61 770.94 673.72 735.76 C 699.95 754.13 731.76 765.10 763.93 764.46 C 782.69 764.17 801.37 759.60 818.07 751.02 C 862.29 729.23 899.03 694.36 927.46 654.44 C 946.83 627.29 962.72 597.74 975.59 567.00 C 963.38 642.74 930.11 714.55 882.40 774.44 C 880.34 777.11 877.73 779.50 876.77 782.85 C 872.12 796.12 861.82 807.41 848.73 812.72 C 843.54 814.97 837.96 816.04 832.38 816.73 C 831.06 816.71 830.56 818.06 829.83 818.90 C 820.41 832.26 805.13 841.15 788.95 843.21 C 774.40 845.24 759.29 841.60 747.00 833.62 C 727.77 838.73 706.81 839.22 688.01 832.11 C 675.74 827.57 664.94 819.23 657.54 808.43 C 654.83 821.02 646.19 831.73 635.17 838.16 C 629.39 841.69 623.01 844.13 616.54 846.06 C 612.05 875.92 588.65 902.24 558.98 908.85 C 554.90 921.35 546.36 932.26 535.18 939.19 C 520.51 948.41 502.53 951.62 485.43 949.77 C 482.44 946.11 479.32 942.56 476.18 939.03 C 465.03 952.62 448.99 961.82 431.85 965.39 C 402.92 971.71 370.55 962.36 350.77 940.00 C 308.02 945.25 262.39 923.53 241.62 885.38 C 241.11 884.18 239.90 883.67 238.80 883.19 C 224.25 876.84 209.50 870.61 196.28 861.72 C 187.43 855.75 179.37 848.47 173.24 839.70 C 143.84 797.80 106.64 761.58 81.07 716.96 C 66.03 689.80 52.88 661.49 43.44 631.87 C 29.84 589.93 22.60 546.03 20.98 502.01 C 18.30 427.64 31.34 353.10 56.08 283.06 C 67.53 250.65 81.58 219.17 97.95 188.95 C 124.44 136.19 165.93 91.52 215.22 59.29 C 244.79 39.93 277.21 24.94 311.14 15.04 Z" />
<path fill="#52a57f" stroke="#52a57f" stroke-width="0.09375" opacity="1.00" d=" M 370.59 260.82 C 376.64 259.84 382.98 259.98 388.74 262.25 C 403.01 267.65 412.94 281.68 415.20 296.54 C 419.80 323.55 413.37 350.65 410.65 377.49 C 406.88 359.54 407.07 340.72 400.57 323.38 C 397.43 315.03 392.16 307.45 385.06 302.00 C 366.07 319.04 351.25 340.36 340.28 363.31 C 330.46 383.84 323.53 405.70 319.01 427.98 C 312.21 463.40 320.38 500.66 338.44 531.56 C 354.10 558.61 377.09 581.41 404.44 596.58 C 431.41 612.43 457.98 630.78 476.54 656.43 C 488.41 672.81 495.90 692.67 496.06 713.02 C 495.95 723.55 491.62 733.78 484.71 741.65 C 474.46 753.46 460.07 760.92 445.24 765.29 C 406.28 728.98 360.03 700.50 325.91 659.09 C 274.42 594.11 249.58 508.22 259.84 425.82 C 262.77 394.54 269.43 363.30 282.62 334.65 C 290.30 317.97 300.24 302.25 312.58 288.62 C 327.64 272.57 349.00 263.53 370.59 260.82 Z" />
<path fill="#52a57f" stroke="#52a57f" stroke-width="0.09375" opacity="1.00" d=" M 774.75 307.14 C 787.03 301.94 801.17 301.96 813.63 306.54 C 827.19 311.20 838.20 320.86 848.15 330.85 C 865.69 349.07 877.93 371.51 889.42 393.83 C 878.12 382.62 868.64 369.77 857.68 358.26 C 846.85 346.74 834.26 336.05 818.93 331.25 C 815.05 330.16 811.09 328.92 807.04 328.98 C 800.21 331.27 795.27 337.40 793.27 344.19 C 789.34 357.02 791.38 370.69 788.79 383.75 C 783.54 358.33 777.24 333.03 774.75 307.14 Z" />
<path fill="#52a57f" stroke="#52a57f" stroke-width="0.09375" opacity="1.00" d=" M 780.97 433.95 C 788.22 430.20 796.89 430.11 804.58 432.52 C 819.21 436.99 831.23 446.99 845.24 452.88 C 833.09 451.54 821.21 446.25 808.84 448.30 C 798.81 450.08 791.80 458.85 787.83 467.66 C 784.65 474.47 784.46 483.98 791.06 488.85 C 806.80 500.34 825.57 506.59 841.89 517.15 C 852.33 523.78 861.83 532.70 866.76 544.26 C 869.93 551.01 870.47 558.59 870.92 565.93 C 872.36 600.07 857.89 634.56 832.50 657.44 C 822.85 666.10 811.55 673.00 799.28 677.26 C 791.14 680.03 781.97 678.74 774.57 674.52 C 764.79 669.04 757.51 660.19 751.17 651.14 C 770.97 629.18 790.90 607.31 809.49 584.29 C 818.38 587.97 827.21 591.82 836.26 595.11 C 837.96 586.36 839.57 577.60 841.26 568.85 C 818.83 555.74 792.75 549.17 772.33 532.65 C 762.88 522.57 758.38 508.57 757.74 494.95 C 756.95 474.68 763.97 454.35 776.45 438.45 C 777.80 436.81 779.04 434.94 780.97 433.95 Z" />
</g>
<g id="#010101ff">
<path fill="#010101" stroke="#010101" stroke-width="0.09375" opacity="1.00" d=" M 340.73 47.63 C 356.83 40.33 374.32 36.14 391.97 35.22 C 409.40 35.17 425.15 46.64 433.53 61.42 C 441.24 74.48 441.94 90.24 441.03 105.00 C 438.60 134.45 425.74 161.55 413.74 188.10 C 413.00 188.87 412.23 189.60 411.43 190.30 C 411.23 189.70 410.83 188.51 410.63 187.91 C 410.89 170.87 410.99 153.64 407.58 136.85 C 404.82 123.01 399.54 109.45 390.73 98.31 C 382.77 88.30 370.59 82.20 358.04 80.43 C 346.54 78.53 334.92 80.92 323.95 84.36 C 304.21 90.47 286.26 101.29 270.03 113.93 C 255.97 124.71 243.36 137.18 230.51 149.32 C 232.41 146.02 234.93 143.14 237.25 140.14 C 249.20 124.91 261.56 109.97 275.08 96.09 C 294.12 76.55 315.68 58.88 340.73 47.63 Z" />
<path fill="#010101" stroke="#010101" stroke-width="0.09375" opacity="1.00" d=" M 507.86 215.79 C 538.80 189.98 579.57 175.32 619.98 178.29 C 635.73 179.66 651.44 182.73 666.10 188.76 C 713.47 207.88 750.43 251.64 760.02 301.98 C 767.46 344.86 762.28 388.68 753.98 431.03 C 745.78 473.56 734.84 515.74 731.53 559.06 C 730.43 568.37 734.53 578.13 741.96 583.86 C 747.38 588.10 754.17 590.27 760.96 591.01 C 778.16 592.76 796.25 586.59 808.02 573.74 C 801.85 582.46 794.30 590.12 787.09 597.97 C 773.98 611.91 760.35 625.45 748.80 640.76 C 745.02 645.89 740.46 651.20 740.32 657.92 C 739.76 668.53 747.48 677.77 756.42 682.54 C 762.65 686.09 769.97 686.41 776.95 686.75 C 794.95 687.38 812.80 682.15 828.43 673.41 C 843.17 665.17 856.17 653.98 866.94 641.00 C 875.68 630.59 882.37 618.66 888.56 606.60 C 910.70 562.31 919.77 512.20 918.47 462.91 C 916.74 415.21 896.27 369.87 867.44 332.47 C 859.00 320.96 847.75 311.69 835.19 305.01 C 817.69 295.59 798.20 290.68 778.74 287.28 C 814.07 279.38 851.67 288.74 881.42 308.67 C 896.98 318.97 910.73 332.00 921.83 347.00 C 929.58 357.43 935.74 368.93 941.41 380.59 C 962.15 423.94 971.71 472.14 972.11 520.05 C 971.89 534.38 972.62 549.03 968.60 562.95 C 964.27 578.72 956.27 593.10 948.55 607.40 C 924.06 650.90 891.29 690.38 850.24 719.16 C 837.14 728.28 823.27 736.33 808.67 742.79 C 781.45 754.56 750.24 755.52 721.83 747.63 C 704.57 742.88 688.19 734.99 673.64 724.57 C 650.06 740.69 626.10 756.34 600.94 769.92 C 571.95 785.60 541.20 798.44 508.90 805.44 C 448.12 821.22 381.56 814.94 325.40 786.55 C 296.10 771.44 269.67 750.94 246.94 727.11 C 201.55 679.20 171.49 618.42 153.94 555.20 C 134.85 487.75 133.28 416.63 139.73 347.22 C 140.27 342.82 140.21 338.32 141.41 334.03 C 143.79 372.28 142.78 410.76 147.56 448.86 C 150.21 471.79 156.00 494.20 161.62 516.54 C 174.00 563.90 190.63 610.95 218.26 651.73 C 227.22 665.14 237.74 677.41 248.39 689.49 C 295.65 741.23 365.82 771.52 435.96 769.34 C 450.80 768.93 466.08 767.40 479.41 760.36 C 493.27 753.46 505.21 741.30 509.01 725.98 C 513.70 707.76 509.17 688.50 501.06 671.95 C 494.20 658.19 485.42 645.31 474.75 634.21 C 451.42 609.94 421.51 593.60 396.13 571.73 C 380.69 558.56 367.07 542.77 358.79 524.08 C 370.73 539.38 384.73 553.20 400.86 564.08 C 415.55 573.94 432.31 581.35 450.07 583.06 C 463.51 584.42 477.19 582.07 489.57 576.72 C 483.40 510.26 461.11 446.49 454.93 380.03 C 452.27 352.34 452.87 324.25 457.88 296.86 C 464.26 265.00 483.02 236.41 507.86 215.79 M 587.74 204.02 C 600.91 206.11 613.98 209.11 626.53 213.67 C 652.65 223.01 677.15 238.47 694.35 260.51 C 705.04 273.98 711.88 289.98 717.55 306.09 C 726.36 331.76 730.35 358.90 731.10 385.98 C 732.50 432.49 724.72 478.57 717.30 524.30 C 724.86 495.48 731.14 466.33 737.46 437.21 C 740.11 423.85 743.84 410.67 745.20 397.08 C 748.42 369.45 748.20 341.23 742.65 313.90 C 736.96 285.59 724.87 258.12 705.28 236.65 C 692.40 222.07 674.60 212.46 655.92 207.56 C 633.73 201.74 610.43 201.61 587.74 204.02 Z" />

</g>
</svg>
