<?xml version="1.0" encoding="UTF-8" ?>
<!DOCTYPE svg PUBLIC "-//W3C//DTD SVG 1.1//EN" "http://www.w3.org/Graphics/SVG/1.1/DTD/svg11.dtd">
<svg width="110px" height="110px" viewBox="0 0 1100 1100" version="1.1" xmlns="http://www.w3.org/2000/svg">
<g>
<path fill="#dbf7f6" stroke="#dbf7f6" stroke-width="0.09375" opacity="1.00" d=" M 342.40 5.28 C 372.95 -2.01 404.66 2.40 435.11 7.91 C 438.97 8.74 443.00 8.95 446.69 10.48 C 415.27 9.67 383.85 16.84 355.65 30.63 C 322.63 46.58 293.78 70.16 268.96 96.96 C 249.91 117.33 233.70 140.12 218.19 163.23 C 171.73 233.57 142.35 314.74 130.84 398.14 C 117.65 493.11 127.62 591.35 160.51 681.47 C 174.90 720.54 193.96 758.00 218.10 791.98 C 254.16 843.13 302.81 886.01 359.88 912.20 C 391.95 926.92 426.79 935.89 462.10 937.17 C 500.65 939.43 539.43 934.24 576.46 923.53 C 639.91 905.14 698.00 871.82 751.06 833.01 C 782.08 854.74 819.97 867.43 858.02 865.79 C 876.54 865.01 894.95 860.69 911.73 852.78 C 942.87 838.13 971.13 817.73 995.75 793.77 C 1040.19 750.41 1073.15 696.43 1097.02 639.41 C 1084.40 718.02 1051.92 792.98 1005.35 857.39 C 998.89 866.53 991.78 875.18 984.98 884.04 C 980.45 897.31 972.05 909.57 959.93 916.94 C 951.48 922.28 941.63 925.11 931.71 925.91 C 922.14 940.36 907.03 951.00 890.12 954.89 C 871.43 959.46 851.08 955.70 835.03 945.18 C 812.58 951.18 788.03 951.61 766.20 942.97 C 752.65 937.70 740.77 928.34 732.53 916.35 C 729.61 929.65 721.00 941.25 709.65 948.62 C 702.31 953.58 694.02 956.95 685.54 959.42 C 682.53 978.55 673.06 996.58 659.03 1009.92 C 648.12 1020.44 634.35 1027.95 619.58 1031.37 C 614.73 1046.47 604.05 1059.47 590.32 1067.37 C 573.91 1076.99 554.28 1080.23 535.48 1078.37 C 531.92 1074.21 528.34 1070.07 524.73 1065.97 C 512.73 1080.54 495.84 1090.77 477.57 1095.32 C 443.49 1104.10 404.48 1093.69 380.98 1067.04 C 331.54 1073.21 278.63 1047.66 255.25 1003.15 C 239.01 995.91 222.44 989.16 207.38 979.59 C 195.98 972.38 185.51 963.42 177.71 952.33 C 146.27 907.49 107.11 868.42 78.12 821.80 C 69.56 808.27 62.57 793.85 55.35 779.58 C 16.63 700.93 0.27 612.32 2.97 524.98 C 6.24 418.37 35.86 313.22 84.83 218.70 C 90.42 208.33 95.59 197.74 101.53 187.57 C 153.50 98.06 242.90 32.35 342.40 5.28 Z" />
<path fill="#dbf7f6" stroke="#dbf7f6" stroke-width="0.09375" opacity="1.00" d=" M 341.46 316.48 C 360.47 298.80 386.32 289.54 412.00 288.11 C 431.94 288.34 448.42 304.94 453.48 323.42 C 458.08 341.92 457.07 361.24 454.97 380.02 C 453.35 394.34 451.05 408.58 449.80 422.94 C 445.53 403.84 445.52 383.94 439.69 365.16 C 436.20 353.87 429.83 343.20 420.26 336.05 C 395.76 358.09 377.35 386.27 364.40 416.43 C 355.61 436.86 349.14 458.26 344.71 480.05 C 337.75 516.03 344.21 553.88 360.27 586.61 C 377.06 621.02 403.90 650.53 436.79 670.20 C 466.68 687.39 496.16 706.79 518.47 733.48 C 534.68 752.72 545.92 776.71 547.36 802.05 C 548.50 814.95 544.13 828.03 535.97 838.02 C 524.19 852.57 506.96 861.70 489.23 866.89 C 463.23 842.64 434.54 821.55 407.31 798.76 C 382.51 777.99 358.59 755.59 340.19 728.80 C 289.55 656.24 265.64 564.88 276.90 476.89 C 281.09 432.75 291.99 388.34 315.27 350.19 C 322.80 338.11 331.19 326.40 341.46 316.48 Z" />
<path fill="#dbf7f6" stroke="#dbf7f6" stroke-width="0.09375" opacity="1.00" d=" M 866.78 341.92 C 881.69 335.51 899.00 336.04 913.91 342.15 C 927.69 347.46 939.00 357.33 949.43 367.51 C 970.66 388.84 984.87 415.70 998.84 442.03 C 980.74 423.81 966.19 402.16 946.25 385.77 C 934.24 375.90 919.75 368.13 904.05 366.89 C 896.67 369.26 891.07 375.60 888.60 382.83 C 883.32 397.99 886.06 414.39 882.90 429.93 C 876.94 400.72 869.66 371.66 866.78 341.92 Z" />
<path fill="#dbf7f6" stroke="#dbf7f6" stroke-width="0.09375" opacity="1.00" d=" M 872.28 488.30 C 879.84 483.32 889.66 482.70 898.31 484.83 C 916.43 489.39 930.91 502.05 948.02 509.01 C 934.04 507.48 920.41 501.42 906.18 503.62 C 896.33 505.13 888.96 512.93 884.17 521.17 C 880.48 527.56 877.98 535.35 880.22 542.66 C 881.65 547.44 885.76 550.63 889.83 553.16 C 910.68 566.81 935.25 574.29 954.52 590.43 C 962.46 597.07 969.07 605.46 972.91 615.13 C 975.90 622.01 976.40 629.60 976.98 636.98 C 978.92 672.75 965.48 708.97 941.20 735.23 C 928.51 748.95 912.65 759.87 894.95 766.02 C 885.49 769.25 874.84 767.67 866.28 762.70 C 855.25 756.39 846.99 746.37 839.80 736.10 C 862.45 710.88 885.34 685.83 906.65 659.44 C 916.79 663.74 926.96 667.97 937.25 671.91 C 939.25 661.88 941.06 651.81 943.00 641.77 C 918.18 627.36 889.70 619.76 866.58 602.37 C 861.99 599.25 859.06 594.40 856.30 589.72 C 847.14 573.50 845.36 553.92 848.92 535.84 C 852.40 518.36 860.24 501.53 872.28 488.30 Z" />
</g>
<g id="#1">
<path fill="#a3c5c4" stroke="#a3c5c4" stroke-width="0.09375" opacity="1.00" d=" M 377.36 41.23 C 393.17 34.96 410.01 31.49 426.95 30.30 C 437.24 30.00 447.46 33.30 455.99 38.97 C 471.74 49.41 482.38 67.20 484.01 86.04 C 487.03 110.32 481.76 134.79 473.51 157.56 C 466.52 177.07 457.46 195.74 449.26 214.75 C 450.03 186.73 450.87 157.88 441.84 130.94 C 438.11 120.05 432.73 109.60 425.23 100.80 C 414.23 88.24 397.45 81.79 380.96 81.45 C 370.55 81.05 360.34 83.65 350.45 86.61 C 323.88 94.81 300.27 110.39 279.12 128.13 C 266.68 138.48 255.09 149.79 243.48 161.05 C 243.55 160.67 243.69 159.92 243.76 159.55 C 263.15 134.88 282.83 110.25 305.76 88.74 C 326.69 69.03 350.43 51.73 377.36 41.23 Z" />
<path fill="#a3c5c4" stroke="#a3c5c4" stroke-width="0.09375" opacity="1.00" d=" M 545.14 252.11 C 581.06 214.15 633.49 191.36 685.98 194.01 C 705.05 195.27 724.10 198.86 741.86 206.04 C 801.07 229.68 846.26 287.15 852.10 351.05 C 856.83 391.08 852.60 431.53 845.46 471.01 C 835.97 523.95 821.59 576.16 817.38 629.95 C 815.94 640.98 820.74 652.66 829.71 659.30 C 837.47 665.14 847.39 667.39 856.97 667.48 C 869.90 667.53 882.94 663.94 893.81 656.86 C 898.08 654.31 901.25 650.44 905.11 647.38 C 882.11 677.39 852.01 701.43 830.89 732.97 C 826.62 739.59 826.28 748.31 829.64 755.38 C 835.26 767.36 847.89 775.58 861.06 776.27 C 884.39 778.99 908.13 772.96 928.44 761.49 C 953.41 747.42 974.22 726.21 988.35 701.31 C 1017.87 650.90 1031.12 592.11 1031.59 534.02 C 1032.08 511.13 1029.02 488.20 1022.58 466.23 C 1013.27 434.17 997.48 404.21 977.79 377.33 C 970.34 366.90 961.99 356.95 951.57 349.36 C 928.28 331.93 899.53 324.05 871.27 319.18 C 906.06 311.31 943.12 318.11 974.31 334.86 C 1003.34 350.33 1028.13 373.78 1045.01 402.03 C 1083.44 467.24 1097.18 544.92 1091.96 619.86 C 1089.74 639.28 1081.32 657.24 1072.27 674.31 C 1055.98 705.68 1035.84 735.07 1012.28 761.42 C 982.57 794.54 946.80 822.72 906.07 840.96 C 871.11 856.22 830.52 855.79 794.84 843.11 C 779.23 837.63 764.43 829.87 750.98 820.25 C 704.99 851.65 657.37 881.83 604.66 900.69 C 590.21 905.89 575.40 910.03 560.40 913.33 C 491.91 930.75 417.16 923.63 353.75 892.16 C 328.81 879.70 305.89 863.43 284.88 845.17 C 235.11 801.36 198.76 743.91 174.39 682.62 C 159.73 645.63 148.97 607.07 142.66 567.78 C 134.29 515.29 133.69 461.82 137.44 408.88 C 138.51 396.73 138.97 384.48 141.00 372.46 C 142.57 389.66 142.51 406.98 143.19 424.24 C 144.09 454.65 145.18 485.14 149.70 515.26 C 152.03 531.46 155.87 547.37 159.66 563.27 C 168.77 600.91 179.72 638.25 195.11 673.85 C 208.08 703.84 224.34 732.56 244.94 758.00 C 254.05 768.85 262.99 779.88 273.13 789.81 C 329.99 846.09 411.54 877.28 491.53 870.74 C 505.46 869.92 519.35 866.44 531.53 859.53 C 544.75 852.15 556.08 840.53 561.05 826.03 C 566.35 810.12 565.07 792.68 560.00 776.89 C 554.30 759.03 544.42 742.79 533.00 728.04 C 511.66 701.33 482.43 682.88 455.29 662.75 C 433.05 646.34 411.33 627.96 397.12 603.87 C 394.45 599.43 392.17 594.77 389.97 590.09 C 410.35 616.26 436.19 639.37 467.44 651.50 C 490.55 660.60 517.28 661.06 540.06 650.70 C 532.51 570.82 504.84 494.24 499.41 414.07 C 497.75 390.06 498.35 365.87 501.80 342.04 C 505.67 308.29 521.86 276.62 545.14 252.11 M 653.03 223.77 C 676.30 227.44 699.24 234.05 720.28 244.78 C 747.76 258.61 772.19 279.73 786.91 307.02 C 794.73 321.89 800.80 337.66 805.43 353.80 C 816.55 392.75 818.53 433.73 816.13 473.98 C 813.85 512.99 807.43 551.58 801.06 590.07 C 812.48 546.78 821.37 502.86 830.91 459.12 C 836.02 427.47 836.96 395.00 832.38 363.22 C 827.88 332.41 817.58 302.02 799.48 276.47 C 790.84 264.38 780.84 252.98 768.38 244.69 C 750.75 232.66 729.83 226.24 708.78 223.65 C 690.28 221.43 671.53 221.70 653.03 223.77 Z" />
</g>
</svg>
