<?xml version="1.0" encoding="UTF-8" ?>
<!DOCTYPE svg PUBLIC "-//W3C//DTD SVG 1.1//EN" "http://www.w3.org/Graphics/SVG/1.1/DTD/svg11.dtd">
<svg width="200px" height="210px" viewBox="0 0 1000 1050" version="1.1" xmlns="http://www.w3.org/2000/svg">

<path fill="#52a57f" d=" M 311.14 15.04 C 332.48 8.47 355.26 9.30 377.14 12.30 C 387.55 13.85 397.99 15.39 408.25 17.79 C 388.91 17.59 369.50 20.13 351.15 26.34 C 320.51 36.45 293.14 54.78 269.63 76.63 C 250.36 94.54 233.54 114.95 218.68 136.62 C 174.57 198.12 146.07 270.34 134.10 344.96 C 123.85 408.55 125.50 474.05 139.16 537.01 C 153.02 601.83 179.59 664.69 221.20 716.67 C 242.48 743.36 268.00 766.72 296.67 785.28 C 326.72 804.71 360.54 818.76 396.01 824.22 C 435.60 829.98 476.28 827.01 514.85 816.56 C 572.72 801.00 625.61 770.94 673.72 735.76 C 699.95 754.13 731.76 765.10 763.93 764.46 C 782.69 764.17 801.37 759.60 818.07 751.02 C 862.29 729.23 899.03 694.36 927.46 654.44 C 946.83 627.29 962.72 597.74 975.59 567.00 C 963.38 642.74 930.11 714.55 882.40 774.44 C 880.34 777.11 877.73 779.50 876.77 782.85 C 872.12 796.12 861.82 807.41 848.73 812.72 C 843.54 814.97 837.96 816.04 832.38 816.73 C 831.06 816.71 830.56 818.06 829.83 818.90 C 820.41 832.26 805.13 841.15 788.95 843.21 C 774.40 845.24 759.29 841.60 747.00 833.62 C 727.77 838.73 706.81 839.22 688.01 832.11 C 675.74 827.57 664.94 819.23 657.54 808.43 C 654.83 821.02 646.19 831.73 635.17 838.16 C 629.39 841.69 623.01 844.13 616.54 846.06 C 612.05 875.92 588.65 902.24 558.98 908.85 C 554.90 921.35 546.36 932.26 535.18 939.19 C 520.51 948.41 502.53 951.62 485.43 949.77 C 482.44 946.11 479.32 942.56 476.18 939.03 C 465.03 952.62 448.99 961.82 431.85 965.39 C 402.92 971.71 370.55 962.36 350.77 940.00 C 308.02 945.25 262.39 923.53 241.62 885.38 C 241.11 884.18 239.90 883.67 238.80 883.19 C 224.25 876.84 209.50 870.61 196.28 861.72 C 187.43 855.75 179.37 848.47 173.24 839.70 C 143.84 797.80 106.64 761.58 81.07 716.96 C 66.03 689.80 52.88 661.49 43.44 631.87 C 29.84 589.93 22.60 546.03 20.98 502.01 C 18.30 427.64 31.34 353.10 56.08 283.06 C 67.53 250.65 81.58 219.17 97.95 188.95 C 124.44 136.19 165.93 91.52 215.22 59.29 C 244.79 39.93 277.21 24.94 311.14 15.04 Z" />
<path fill="#010101" d=" M 340.73 47.63 C 356.83 40.33 374.32 36.14 391.97 35.22 C 409.40 35.17 425.15 46.64 433.53 61.42 C 441.24 74.48 441.94 90.24 441.03 105.00 C 438.60 134.45 425.74 161.55 413.74 188.10 C 413.00 188.87 412.23 189.60 411.43 190.30 C 411.23 189.70 410.83 188.51 410.63 187.91 C 410.89 170.87 410.99 153.64 407.58 136.85 C 404.82 123.01 399.54 109.45 390.73 98.31 C 382.77 88.30 370.59 82.20 358.04 80.43 C 346.54 78.53 334.92 80.92 323.95 84.36 C 304.21 90.47 286.26 101.29 270.03 113.93 C 255.97 124.71 243.36 137.18 230.51 149.32 C 232.41 146.02 234.93 143.14 237.25 140.14 C 249.20 124.91 261.56 109.97 275.08 96.09 C 294.12 76.55 315.68 58.88 340.73 47.63 Z" />
<path fill="#010101" d=" M 507.86 215.79 C 538.80 189.98 579.57 175.32 619.98 178.29 C 635.73 179.66 651.44 182.73 666.10 188.76 C 713.47 207.88 750.43 251.64 760.02 301.98 C 767.46 344.86 762.28 388.68 753.98 431.03 C 745.78 473.56 734.84 515.74 731.53 559.06 C 730.43 568.37 734.53 578.13 741.96 583.86 C 747.38 588.10 754.17 590.27 760.96 591.01 C 778.16 592.76 796.25 586.59 808.02 573.74 C 801.85 582.46 794.30 590.12 787.09 597.97 C 773.98 611.91 760.35 625.45 748.80 640.76 C 745.02 645.89 740.46 651.20 740.32 657.92 C 739.76 668.53 747.48 677.77 756.42 682.54 C 762.65 686.09 769.97 686.41 776.95 686.75 C 794.95 687.38 812.80 682.15 828.43 673.41 C 843.17 665.17 856.17 653.98 866.94 641.00 C 875.68 630.59 882.37 618.66 888.56 606.60 C 910.70 562.31 919.77 512.20 918.47 462.91 C 916.74 415.21 896.27 369.87 867.44 332.47 C 859.00 320.96 847.75 311.69 835.19 305.01 C 817.69 295.59 798.20 290.68 778.74 287.28 C 814.07 279.38 851.67 288.74 881.42 308.67 C 896.98 318.97 910.73 332.00 921.83 347.00 C 929.58 357.43 935.74 368.93 941.41 380.59 C 962.15 423.94 971.71 472.14 972.11 520.05 C 971.89 534.38 972.62 549.03 968.60 562.95 C 964.27 578.72 956.27 593.10 948.55 607.40 C 924.06 650.90 891.29 690.38 850.24 719.16 C 837.14 728.28 823.27 736.33 808.67 742.79 C 781.45 754.56 750.24 755.52 721.83 747.63 C 704.57 742.88 688.19 734.99 673.64 724.57 C 650.06 740.69 626.10 756.34 600.94 769.92 C 571.95 785.60 541.20 798.44 508.90 805.44 C 448.12 821.22 381.56 814.94 325.40 786.55 C 296.10 771.44 269.67 750.94 246.94 727.11 C 201.55 679.20 171.49 618.42 153.94 555.20 C 134.85 487.75 133.28 416.63 139.73 347.22 C 140.27 342.82 140.21 338.32 141.41 334.03 C 143.79 372.28 142.78 410.76 147.56 448.86 C 150.21 471.79 156.00 494.20 161.62 516.54 C 174.00 563.90 190.63 610.95 218.26 651.73 C 227.22 665.14 237.74 677.41 248.39 689.49 C 295.65 741.23 365.82 771.52 435.96 769.34 C 450.80 768.93 466.08 767.40 479.41 760.36 C 493.27 753.46 505.21 741.30 509.01 725.98 C 513.70 707.76 509.17 688.50 501.06 671.95 C 494.20 658.19 485.42 645.31 474.75 634.21 C 451.42 609.94 421.51 593.60 396.13 571.73 C 380.69 558.56 367.07 542.77 358.79 524.08 C 370.73 539.38 384.73 553.20 400.86 564.08 C 415.55 573.94 432.31 581.35 450.07 583.06 C 463.51 584.42 477.19 582.07 489.57 576.72 C 483.40 510.26 461.11 446.49 454.93 380.03 C 452.27 352.34 452.87 324.25 457.88 296.86 C 464.26 265.00 483.02 236.41 507.86 215.79 M 587.74 204.02 C 600.91 206.11 613.98 209.11 626.53 213.67 C 652.65 223.01 677.15 238.47 694.35 260.51 C 705.04 273.98 711.88 289.98 717.55 306.09 C 726.36 331.76 730.35 358.90 731.10 385.98 C 732.50 432.49 724.72 478.57 717.30 524.30 C 724.86 495.48 731.14 466.33 737.46 437.21 C 740.11 423.85 743.84 410.67 745.20 397.08 C 748.42 369.45 748.20 341.23 742.65 313.90 C 736.96 285.59 724.87 258.12 705.28 236.65 C 692.40 222.07 674.60 212.46 655.92 207.56 C 633.73 201.74 610.43 201.61 587.74 204.02 Z" />
<path fill="#52a57f" d=" M 370.59 260.82 C 376.64 259.84 382.98 259.98 388.74 262.25 C 403.01 267.65 412.94 281.68 415.20 296.54 C 419.80 323.55 413.37 350.65 410.65 377.49 C 406.88 359.54 407.07 340.72 400.57 323.38 C 397.43 315.03 392.16 307.45 385.06 302.00 C 366.07 319.04 351.25 340.36 340.28 363.31 C 330.46 383.84 323.53 405.70 319.01 427.98 C 312.21 463.40 320.38 500.66 338.44 531.56 C 354.10 558.61 377.09 581.41 404.44 596.58 C 431.41 612.43 457.98 630.78 476.54 656.43 C 488.41 672.81 495.90 692.67 496.06 713.02 C 495.95 723.55 491.62 733.78 484.71 741.65 C 474.46 753.46 460.07 760.92 445.24 765.29 C 406.28 728.98 360.03 700.50 325.91 659.09 C 274.42 594.11 249.58 508.22 259.84 425.82 C 262.77 394.54 269.43 363.30 282.62 334.65 C 290.30 317.97 300.24 302.25 312.58 288.62 C 327.64 272.57 349.00 263.53 370.59 260.82 Z" />
<path fill="#52a57f" d=" M 774.75 307.14 C 787.03 301.94 801.17 301.96 813.63 306.54 C 827.19 311.20 838.20 320.86 848.15 330.85 C 865.69 349.07 877.93 371.51 889.42 393.83 C 878.12 382.62 868.64 369.77 857.68 358.26 C 846.85 346.74 834.26 336.05 818.93 331.25 C 815.05 330.16 811.09 328.92 807.04 328.98 C 800.21 331.27 795.27 337.40 793.27 344.19 C 789.34 357.02 791.38 370.69 788.79 383.75 C 783.54 358.33 777.24 333.03 774.75 307.14 Z" />
<path fill="#52a57f" d=" M 780.97 433.95 C 788.22 430.20 796.89 430.11 804.58 432.52 C 819.21 436.99 831.23 446.99 845.24 452.88 C 833.09 451.54 821.21 446.25 808.84 448.30 C 798.81 450.08 791.80 458.85 787.83 467.66 C 784.65 474.47 784.46 483.98 791.06 488.85 C 806.80 500.34 825.57 506.59 841.89 517.15 C 852.33 523.78 861.83 532.70 866.76 544.26 C 869.93 551.01 870.47 558.59 870.92 565.93 C 872.36 600.07 857.89 634.56 832.50 657.44 C 822.85 666.10 811.55 673.00 799.28 677.26 C 791.14 680.03 781.97 678.74 774.57 674.52 C 764.79 669.04 757.51 660.19 751.17 651.14 C 770.97 629.18 790.90 607.31 809.49 584.29 C 818.38 587.97 827.21 591.82 836.26 595.11 C 837.96 586.36 839.57 577.60 841.26 568.85 C 818.83 555.74 792.75 549.17 772.33 532.65 C 762.88 522.57 758.38 508.57 757.74 494.95 C 756.95 474.68 763.97 454.35 776.45 438.45 C 777.80 436.81 779.04 434.94 780.97 433.95 Z" />
<path fill="#010101" d=" M 680.26 977.26 C 684.57 975.10 690.42 979.20 689.19 984.09 C 688.63 988.96 681.80 991.09 678.53 987.48 C 675.37 984.60 676.30 978.90 680.26 977.26 Z" />
<path fill="#010101" d=" M 695.42 977.50 C 699.32 975.09 705.29 978.33 704.90 983.05 C 705.08 987.74 699.32 990.96 695.38 988.47 C 691.29 986.24 691.16 979.62 695.42 977.50 Z" />
<path fill="#010101" d=" M 421.57 991.72 C 430.19 990.31 439.67 991.74 446.63 997.31 C 460.48 1008.27 459.62 1033.03 444.48 1042.48 C 432.68 1049.69 415.44 1048.58 405.82 1038.18 C 398.27 1029.75 397.12 1016.74 401.58 1006.57 C 405.06 998.53 413.03 993.07 421.57 991.72 M 423.35 1002.51 C 411.42 1005.02 407.70 1021.20 414.72 1030.20 C 420.57 1037.94 433.55 1038.27 439.96 1031.06 C 445.09 1025.21 445.48 1015.97 441.58 1009.38 C 437.97 1003.23 430.05 1000.85 423.35 1002.51 Z" />
<path fill="#010101" d=" M 473.64 995.64 C 484.13 989.27 499.77 989.15 508.26 998.95 C 505.27 1001.40 502.28 1003.83 499.29 1006.27 C 494.33 1001.02 485.49 1000.63 479.94 1005.16 C 471.81 1011.73 471.63 1025.67 479.34 1032.65 C 485.10 1038.09 495.25 1037.18 499.78 1030.59 C 503.03 1033.02 506.29 1035.43 509.53 1037.89 C 500.84 1049.46 482.74 1049.50 471.75 1041.31 C 457.34 1030.53 458.11 1005.07 473.64 995.64 Z" />
<path fill="#010101" d=" M 578.51 991.73 C 587.14 990.30 596.63 991.73 603.61 997.29 C 617.50 1008.25 616.62 1033.10 601.41 1042.52 C 589.43 1049.81 571.80 1048.53 562.34 1037.63 C 555.22 1029.17 554.22 1016.54 558.57 1006.59 C 562.04 998.56 569.99 993.10 578.51 991.73 M 580.41 1002.50 C 568.67 1004.91 564.81 1020.57 571.33 1029.67 C 576.15 1036.70 586.69 1038.14 593.74 1033.76 C 601.92 1028.69 603.31 1016.55 598.23 1008.83 C 594.49 1003.06 586.89 1000.94 580.41 1002.50 Z" />
<path fill="#010101" d=" M 728.79 994.85 C 737.67 989.32 750.17 990.07 758.30 996.69 C 755.65 999.59 752.98 1002.48 750.34 1005.40 C 746.45 1001.95 740.24 1000.73 735.76 1003.75 C 733.17 1005.38 733.14 1009.70 735.83 1011.25 C 742.17 1015.19 751.12 1014.66 755.86 1021.18 C 760.89 1028.54 758.01 1040.06 750.03 1044.18 C 740.48 1049.09 727.96 1047.68 719.85 1040.56 C 722.46 1037.33 725.38 1034.37 728.13 1031.27 C 731.88 1035.71 738.63 1037.79 743.91 1034.88 C 746.84 1033.52 747.49 1029.08 744.87 1027.10 C 741.13 1024.25 736.32 1023.61 732.05 1021.92 C 728.03 1020.44 724.05 1017.81 722.43 1013.68 C 720.07 1006.90 722.64 998.70 728.79 994.85 Z" />
<path fill="#010101" d=" M 777.90 992.20 C 785.88 990.06 795.07 991.30 801.54 996.68 C 798.90 999.60 796.21 1002.48 793.60 1005.42 C 789.68 1001.90 783.30 1000.69 778.85 1003.88 C 776.24 1005.68 776.56 1010.11 779.43 1011.50 C 785.52 1015.01 793.65 1014.75 798.50 1020.42 C 804.40 1027.64 801.52 1039.96 793.26 1044.19 C 783.70 1049.07 771.06 1047.74 763.07 1040.43 C 765.82 1037.36 768.62 1034.35 771.35 1031.27 C 775.23 1035.82 782.36 1037.94 787.65 1034.58 C 790.53 1032.87 790.42 1028.22 787.49 1026.62 C 781.50 1022.81 773.46 1022.97 768.33 1017.66 C 764.49 1014.05 764.23 1008.16 765.56 1003.38 C 767.26 997.75 772.32 993.65 777.90 992.20 Z" />
<path fill="#010101" d=" M 510.76 992.75 C 524.77 992.75 538.79 992.74 552.81 992.76 C 552.81 996.16 552.81 999.57 552.82 1002.99 C 547.75 1003.00 542.69 1002.99 537.63 1003.00 C 537.62 1017.25 537.63 1031.49 537.63 1045.74 C 533.71 1045.75 529.79 1045.75 525.88 1045.75 C 525.87 1031.50 525.88 1017.25 525.88 1003.01 C 520.83 1002.99 515.79 1003.00 510.75 1003.00 C 510.74 999.58 510.74 996.16 510.76 992.75 Z" />
<path fill="#010101" d=" M 621.13 992.76 C 628.71 992.80 636.30 992.62 643.88 992.83 C 650.26 992.99 657.57 995.59 659.97 1002.07 C 662.27 1008.75 661.39 1017.73 655.02 1021.90 C 648.42 1026.05 640.27 1024.79 632.88 1025.00 C 632.87 1031.91 632.88 1038.83 632.87 1045.75 C 628.95 1045.74 625.04 1045.74 621.13 1045.75 C 621.12 1028.08 621.12 1010.42 621.13 992.76 M 632.88 1002.75 C 632.87 1006.83 632.87 1010.91 632.88 1014.99 C 637.22 1014.78 641.88 1015.70 645.97 1013.87 C 649.81 1012.08 649.90 1005.70 645.94 1004.00 C 641.86 1002.16 637.21 1002.92 632.88 1002.75 Z" />
<path fill="#010101" d=" M 668.39 1026.00 C 668.34 1014.91 668.37 1003.83 668.39 992.75 C 672.29 992.74 676.21 992.74 680.12 992.76 C 680.20 1003.82 680.00 1014.90 680.21 1025.97 C 680.34 1031.55 685.30 1036.55 690.98 1036.22 C 696.51 1036.36 701.20 1031.40 701.34 1025.99 C 701.59 1014.91 701.34 1003.82 701.46 992.74 C 705.36 992.74 709.27 992.74 713.18 992.76 C 713.14 1004.15 713.28 1015.55 713.12 1026.94 C 713.01 1034.91 708.09 1042.80 700.40 1045.44 C 692.75 1048.04 683.61 1047.72 676.75 1043.13 C 671.18 1039.38 668.41 1032.55 668.39 1026.00 Z" />
<path fill="#010101" d=" M 803.22 992.76 C 808.09 992.74 812.96 992.74 817.85 992.75 C 821.50 999.06 824.94 1005.50 828.69 1011.75 C 828.87 1011.78 829.21 1011.84 829.38 1011.87 C 833.32 1005.55 837.03 999.09 840.94 992.76 C 845.58 992.74 850.23 992.74 854.88 992.76 C 848.35 1002.93 841.45 1012.88 835.11 1023.16 C 834.68 1030.67 835.07 1038.22 834.93 1045.75 C 831.01 1045.74 827.10 1045.74 823.19 1045.75 C 823.05 1038.23 823.44 1030.68 823.02 1023.18 C 816.64 1012.91 809.76 1002.93 803.22 992.76 Z" />
</svg>
